<svg width="163" height="161" xmlns="http://www.w3.org/2000/svg" xmlns:xlink="http://www.w3.org/1999/xlink" xml:space="preserve" overflow="hidden"><defs><clipPath id="clip0"><rect x="438" y="180" width="161" height="161"/></clipPath><clipPath id="clip1"><rect x="438" y="180" width="161" height="161"/></clipPath><clipPath id="clip2"><rect x="438" y="180" width="161" height="161"/></clipPath></defs><g transform="translate(-437 -180)"><g><g clip-path="url(#clip0)"><g clip-path="url(#clip1)"><g clip-path="url(#clip2)"><path d="M573.281 252.37C573.267 252.278 573.254 252.186 573.239 252.095 573.197 251.822 573.15 251.551 573.104 251.28 573.058 251.019 573.013 250.758 572.964 250.497 572.944 250.39 572.923 250.284 572.903 250.177 572.782 249.55 572.648 248.928 572.507 248.309 572.486 248.219 572.463 248.13 572.442 248.04 572.321 247.52 572.192 247.003 572.056 246.489 572.041 246.431 572.029 246.374 572.014 246.318 571.972 246.163 571.927 246.011 571.884 245.857 571.815 245.607 571.747 245.358 571.674 245.11 571.539 244.646 571.398 244.183 571.251 243.724 571.233 243.666 571.214 243.609 571.195 243.552 571.091 243.229 570.984 242.908 570.873 242.588 570.793 242.357 570.711 242.125 570.629 241.896 570.581 241.764 570.534 241.632 570.486 241.5 569.962 240.071 569.384 238.67 568.752 237.297 568.532 236.823 568.305 236.354 568.073 235.888L568.156 235.84 567.029 233.89C566.654 233.207 566.264 232.533 565.86 231.869L564.932 230.265 564.875 230.298C564.498 229.72 564.107 229.152 563.708 228.589 559.091 222.083 553.117 216.654 546.2 212.677 544.201 211.522 542.132 210.492 540.005 209.591L540.004 209.6C539.888 211.8 539.432 213.969 538.652 216.029L538.65 216.036C546.375 219.547 553.062 224.994 558.063 231.848 558.471 232.407 558.867 232.973 559.252 233.549L541.796 243.642 539.588 242.95C539.428 242.899 539.269 242.843 539.109 242.792 535.943 241.781 532.836 240.596 529.802 239.24 527.685 238.321 525.59 237.302 523.531 236.214 522.391 235.612 521.26 234.994 520.149 234.346L518.525 233.398 516.901 234.347C515.775 235.004 514.627 235.632 513.468 236.243 511.411 237.33 509.311 238.35 507.176 239.278 504.586 240.432 499.545 242.207 497.881 242.786 497.544 242.904 497.342 242.973 497.331 242.976L495.44 243.624 477.814 233.448C478.178 232.907 478.552 232.374 478.937 231.848 483.938 224.994 490.625 219.547 498.35 216.036L498.346 216.027C497.568 213.967 497.112 211.799 496.995 209.6L496.995 209.593C487.469 213.574 479.26 220.162 473.312 228.601 472.937 229.131 472.571 229.669 472.213 230.215L472.131 230.168 468.911 235.745 468.993 235.792C468.741 236.293 468.497 236.797 468.26 237.304 463.845 246.729 462.201 257.215 463.522 267.539L463.526 267.537C465.491 266.545 467.598 265.863 469.772 265.516L469.779 265.514C469.621 263.916 469.541 262.297 469.538 260.657 469.53 253.719 471.005 246.86 473.865 240.539 474.096 240.028 474.339 239.523 474.587 239.021L495.155 250.896 495.155 258.125C495.109 264.681 497.335 271.051 501.454 276.151 504.343 279.703 507.852 282.702 511.812 285.001 512.503 282.949 513.328 280.945 514.283 279.001 514.017 278.836 513.748 278.668 513.469 278.484 511.091 276.93 508.943 275.05 507.091 272.897 503.53 268.801 501.577 263.552 501.595 258.125L501.595 248.307C501.967 248.176 502.375 248.03 502.803 247.876 503.55 247.607 504.362 247.31 505.185 247.003 506.844 246.383 508.535 245.723 509.769 245.172 511.011 244.633 512.244 244.059 513.469 243.465 515.178 242.636 516.869 241.762 518.527 240.835 520.171 241.753 521.845 242.619 523.531 243.437 524.751 244.029 525.975 244.599 527.203 245.133 528.701 245.803 530.227 246.434 531.769 247.03 532.611 247.355 533.458 247.669 534.311 247.969 534.675 248.099 535.039 248.232 535.405 248.357L535.405 257.103C537.48 255.988 539.632 255.023 541.845 254.216L541.845 251.052 562.466 239.129C562.696 239.595 562.92 240.065 563.135 240.539 563.607 241.582 564.042 242.643 564.441 243.724 564.485 243.843 564.528 243.963 564.571 244.083 564.643 244.282 564.714 244.483 564.783 244.684 564.882 244.972 564.979 245.259 565.073 245.549 565.088 245.595 565.103 245.641 565.118 245.687 565.248 246.093 565.372 246.503 565.492 246.913 565.557 247.135 565.618 247.359 565.68 247.582 565.731 247.765 565.781 247.948 565.83 248.132 565.952 248.592 566.066 249.052 566.173 249.513 566.191 249.59 566.211 249.666 566.229 249.744 566.355 250.294 566.472 250.846 566.579 251.398 566.597 251.49 566.616 251.583 566.633 251.676 566.645 251.744 566.657 251.811 566.669 251.878 568.957 252.247 571.217 252.776 573.43 253.464 573.381 253.1 573.337 252.735 573.281 252.37ZM509.04 308.697C508.977 308.684 508.914 308.673 508.85 308.661 508.557 308.602 508.263 308.538 507.97 308.474 507.86 308.449 507.749 308.426 507.639 308.402 507.387 308.344 507.136 308.283 506.885 308.222 506.735 308.185 506.585 308.15 506.435 308.112 506.223 308.058 506.011 308 505.799 307.943 505.612 307.893 505.425 307.844 505.238 307.791 505.065 307.743 504.892 307.691 504.719 307.64 504.496 307.574 504.273 307.51 504.051 307.441 503.917 307.4 503.785 307.356 503.651 307.313 503.391 307.23 503.131 307.147 502.872 307.06 502.784 307.03 502.697 306.999 502.609 306.969 502.306 306.864 502.003 306.759 501.702 306.649 501.67 306.637 501.638 306.624 501.605 306.612 501.029 306.4 500.456 306.172 499.884 305.937 499.62 305.828 499.36 305.714 499.099 305.601 498.808 305.475 498.517 305.347 498.227 305.215 497.892 305.062 497.558 304.905 497.227 304.745 497.049 304.659 496.872 304.57 496.695 304.482 494.32 303.296 492.046 301.92 489.894 300.367 489.889 300.374 489.884 300.38 489.879 300.387 488.487 302.082 486.846 303.556 485.012 304.759 485.002 304.766 484.992 304.771 484.983 304.778 486.84 306.183 488.783 307.471 490.8 308.635 491.605 309.1 492.419 309.535 493.237 309.954 493.281 309.977 493.324 309.999 493.368 310.022 494.417 310.558 495.486 311.06 496.573 311.529 496.744 311.603 496.915 311.678 497.086 311.75 497.368 311.869 497.652 311.984 497.936 312.098 498.165 312.19 498.394 312.28 498.624 312.368 498.881 312.467 499.136 312.566 499.394 312.661 499.848 312.828 500.303 312.99 500.76 313.145 500.951 313.209 501.144 313.27 501.335 313.332 501.666 313.44 501.997 313.546 502.329 313.648 502.532 313.71 502.734 313.77 502.938 313.829 503.292 313.933 503.647 314.033 504.003 314.129 504.165 314.173 504.326 314.218 504.489 314.261 505.015 314.398 505.542 314.529 506.071 314.651 506.103 314.658 506.136 314.665 506.169 314.672 506.681 314.789 507.193 314.897 507.706 314.998 507.815 315.02 507.924 315.04 508.033 315.061 508.507 315.152 508.982 315.237 509.458 315.315 509.53 315.327 509.602 315.339 509.674 315.351 510.287 315.45 510.904 315.538 511.524 315.616 510.828 313.404 510.288 311.146 509.91 308.859 509.62 308.807 509.33 308.753 509.04 308.697Z" fill="#1D428A" fill-rule="nonzero" fill-opacity="1"/><path d="M523.531 219.632C526.417 218.329 528.691 215.967 529.884 213.034L529.89 213.019C530.478 211.566 530.779 210.014 530.779 208.447 530.779 207.828 530.732 207.21 530.639 206.598 530.638 206.591 530.637 206.584 530.636 206.577 529.592 199.874 523.312 195.287 516.61 196.331 511.321 197.155 507.175 201.308 506.361 206.598L506.36 206.604C506.03 208.777 506.291 210.998 507.115 213.034L507.118 213.04C508.312 215.97 510.585 218.33 513.469 219.632 516.668 221.074 520.332 221.074 523.531 219.632ZM513.823 211.92 513.815 211.908C512.414 210.041 512.277 207.513 513.469 205.505 513.473 205.498 513.477 205.492 513.481 205.485L513.49 205.47C515.137 202.703 518.714 201.795 521.481 203.441 522.31 203.935 523.005 204.627 523.501 205.456L523.519 205.485 523.531 205.506C524.608 207.319 524.608 209.575 523.531 211.389 523.428 211.564 523.315 211.733 523.194 211.897L523.177 211.92C521.26 214.503 517.612 215.043 515.029 213.125 514.57 212.785 514.163 212.379 513.823 211.92ZM579.977 219.197 585.568 215.969C571.642 194.972 548.678 181.718 523.531 180.162L523.531 186.612C546.376 188.151 567.219 200.184 579.977 219.197ZM523.531 340.839 523.536 340.838 523.531 340.838ZM451.984 227.906 446.396 224.68C435.202 247.248 435.202 273.752 446.396 296.32L451.984 293.094C441.925 272.528 441.925 248.471 451.984 227.906ZM480.298 276.747C477.766 274.95 474.645 274.186 471.57 274.609L471.568 274.61C469.391 274.904 467.334 275.78 465.612 277.145L465.606 277.15C462.662 279.471 460.944 283.013 460.943 286.761 460.943 287.142 460.963 287.518 460.997 287.89 461.623 294.638 467.602 299.601 474.351 298.975 475.501 298.868 476.631 298.599 477.706 298.176 477.723 298.17 477.741 298.163 477.758 298.156 479.782 297.346 481.556 296.015 482.898 294.298 482.908 294.286 482.917 294.274 482.927 294.262 484.596 292.118 485.502 289.478 485.5 286.761 485.495 282.776 483.555 279.042 480.298 276.747ZM478.606 289.012C478.6 289.026 478.594 289.04 478.588 289.054 478.527 289.195 478.459 289.333 478.387 289.469 477.381 291.376 475.406 292.574 473.25 292.586 473.24 292.586 473.231 292.587 473.221 292.587 473.212 292.587 473.203 292.586 473.194 292.586 473.13 292.586 473.068 292.578 473.005 292.576 469.873 292.462 467.391 289.895 467.383 286.761 467.383 285.737 467.656 284.731 468.173 283.847L468.184 283.829C468.211 283.783 468.239 283.738 468.267 283.692 469.296 282.04 471.081 281.01 473.026 280.945 473.091 280.943 473.155 280.935 473.221 280.935 473.465 280.937 473.708 280.953 473.949 280.985L473.964 280.988C477.152 281.385 479.413 284.291 479.016 287.479 478.95 288.006 478.812 288.522 478.606 289.012ZM596.787 287.586C596.386 286.43 595.935 285.299 595.435 284.192 594.428 281.974 593.223 279.852 591.832 277.852 591.503 277.378 591.165 276.912 590.817 276.453 589.761 275.062 588.615 273.741 587.389 272.499 587.271 272.358 587.142 272.228 587.001 272.111 586.568 271.683 586.125 271.264 585.672 270.856 582.192 267.717 578.192 265.208 573.851 263.442 573.213 263.183 572.568 262.94 571.915 262.713 561.831 259.212 550.767 259.872 541.171 264.547 537.777 266.203 534.632 268.327 531.828 270.856 531.496 271.155 531.17 271.459 530.849 271.768 530.732 271.881 530.615 271.995 530.499 272.111 530.358 272.228 530.229 272.358 530.111 272.499 529.167 273.454 528.273 274.456 527.428 275.503 525.168 278.3 523.292 281.387 521.85 284.682 521.435 285.632 521.056 286.6 520.713 287.586 517.762 296.114 517.762 305.386 520.713 313.914 520.965 314.639 521.236 315.354 521.527 316.059 521.633 316.313 521.74 316.567 521.85 316.818 523.835 321.351 526.635 325.48 530.111 329.001 530.229 329.142 530.358 329.272 530.499 329.389 533.894 332.74 537.855 335.465 542.198 337.437 543.302 337.937 544.431 338.387 545.586 338.787 548.682 339.861 551.897 340.55 555.161 340.838 556.344 340.943 557.54 341 558.75 341 559.96 341 561.156 340.943 562.339 340.838 571.642 340.012 580.365 335.963 587.001 329.389 587.142 329.272 587.271 329.142 587.389 329.001 591.604 324.733 594.814 319.579 596.787 313.914 599.738 305.386 599.738 296.114 596.787 287.586ZM534.206 301.064C533.167 303.249 532.283 305.504 531.561 307.813 531.075 309.364 530.684 310.868 530.369 312.308 530.176 313.189 530.011 314.047 529.872 314.876 529.711 315.84 529.583 316.765 529.483 317.646 529.022 316.85 528.588 316.037 528.192 315.202 526.288 311.192 525.197 306.845 524.982 302.411 524.955 301.86 524.94 301.307 524.94 300.75 524.94 300.193 524.955 299.64 524.982 299.09 525.242 293.724 526.785 288.499 529.483 283.854 529.688 285.647 529.983 287.429 530.369 289.192 531.215 293.074 532.502 296.847 534.206 300.436 534.255 300.541 534.306 300.645 534.357 300.75 534.306 300.855 534.255 300.959 534.206 301.064ZM581.877 277.622C581.887 279.158 581.816 280.693 581.665 282.222 581.432 284.594 581.022 286.946 580.438 289.257 580.052 290.781 579.59 292.286 579.054 293.764 578.024 292.286 576.918 290.862 575.742 289.498 574.88 288.496 573.963 287.502 572.98 286.519 570.751 284.285 568.327 282.253 565.737 280.447 567.216 279.911 568.721 279.449 570.246 279.064 571.133 278.839 571.995 278.649 572.829 278.487 574.435 278.175 575.93 277.969 577.28 277.837 578.808 277.686 580.342 277.614 581.877 277.622ZM575.824 300.75C574.106 303.762 572.047 306.568 569.688 309.111 569.28 309.552 568.862 309.991 568.427 310.427 567.991 310.862 567.552 311.28 567.111 311.688 564.567 314.047 561.761 316.107 558.748 317.825 555.736 316.106 552.932 314.047 550.389 311.689 549.948 311.28 549.509 310.862 549.073 310.427 548.638 309.991 548.22 309.552 547.812 309.111 547.522 308.798 547.238 308.484 546.962 308.169 545.537 306.543 544.229 304.816 543.051 303.003 542.559 302.247 542.098 301.491 541.667 300.736 543.391 297.729 545.453 294.928 547.811 292.388 548.219 291.948 548.638 291.509 549.073 291.073 549.509 290.637 549.948 290.219 550.389 289.811 550.81 289.422 551.232 289.046 551.656 288.683 553.855 286.789 556.232 285.112 558.752 283.675 558.772 283.686 558.791 283.696 558.811 283.707 561.8 285.42 564.585 287.468 567.111 289.811 567.427 290.104 567.741 290.407 568.055 290.714 568.179 290.835 568.303 290.95 568.427 291.073 568.862 291.509 569.28 291.948 569.688 292.389 570.647 293.425 571.533 294.473 572.346 295.532 573.626 297.188 574.788 298.932 575.824 300.75ZM542.98 270.856C547.341 268.543 552.159 267.22 557.09 266.982 557.64 266.955 558.193 266.94 558.75 266.94 559.307 266.94 559.86 266.955 560.411 266.982 565.342 267.22 570.159 268.543 574.52 270.856 574.9 271.058 575.274 271.268 575.646 271.483 573.853 271.687 572.071 271.983 570.309 272.369 567.829 272.91 565.392 273.631 563.017 274.525 561.72 275.014 560.399 275.571 559.064 276.206 558.959 276.255 558.855 276.306 558.75 276.357 558.646 276.306 558.541 276.255 558.437 276.206 558.275 276.129 558.114 276.054 557.953 275.979 554.508 274.388 550.9 273.177 547.192 272.369 545.429 271.983 543.648 271.687 541.855 271.483 542.226 271.268 542.6 271.058 542.98 270.856ZM535.622 277.623C537.159 277.611 538.696 277.681 540.225 277.832 542.599 278.064 544.951 278.474 547.263 279.059 548.787 279.445 550.291 279.907 551.768 280.443 546.58 284.068 542.071 288.577 538.446 293.765 537.909 292.286 537.447 290.782 537.062 289.257 536.477 286.946 536.067 284.595 535.835 282.223 535.683 280.694 535.612 279.159 535.622 277.623ZM535.612 323.878C535.596 322.334 535.663 320.79 535.814 319.254 536.02 317.122 536.371 315.006 536.866 312.921 536.923 312.683 536.981 312.445 537.042 312.203 537.428 310.683 537.89 309.183 538.428 307.709 539.247 308.887 540.138 310.059 541.102 311.227 542.15 312.491 543.284 313.745 544.52 314.98 546.751 317.215 549.177 319.247 551.769 321.052 550.289 321.589 548.783 322.052 547.257 322.438 544.949 323.022 542.6 323.432 540.231 323.664 538.695 323.817 537.154 323.889 535.612 323.878ZM560.401 334.518C559.854 334.545 559.304 334.56 558.75 334.56 558.197 334.56 557.646 334.545 557.098 334.518 552.059 334.273 547.139 332.901 542.701 330.501 542.414 330.345 542.134 330.179 541.852 330.015 542.994 329.886 544.21 329.71 545.488 329.474 546.044 329.371 546.611 329.257 547.19 329.13 551.072 328.285 554.844 326.998 558.434 325.294 558.539 325.245 558.644 325.195 558.75 325.144 558.855 325.195 558.96 325.245 559.066 325.295 560.597 326.023 562.11 326.648 563.591 327.186 567.485 328.599 571.532 329.549 575.647 330.016 570.999 332.716 565.77 334.26 560.401 334.518ZM581.878 323.877C580.337 323.891 578.798 323.821 577.265 323.669 574.894 323.437 572.544 323.027 570.235 322.442 570.15 322.42 570.065 322.4 569.98 322.378 568.611 322.023 567.187 321.587 565.727 321.055 570.918 317.434 575.43 312.924 579.054 307.735 579.583 309.192 580.018 310.613 580.372 311.979 580.394 312.068 580.416 312.154 580.438 312.243 581.023 314.553 581.433 316.905 581.665 319.277 581.817 320.806 581.888 322.341 581.878 323.877ZM592.518 302.41C592.259 307.776 590.715 313.001 588.017 317.646 587.548 313.527 586.598 309.477 585.184 305.58 585.066 305.254 584.943 304.926 584.816 304.597 584.367 303.435 583.86 302.257 583.294 301.064 583.245 300.959 583.194 300.854 583.143 300.75 583.194 300.645 583.245 300.541 583.294 300.436 584.341 298.235 585.23 295.963 585.956 293.636 586.434 292.103 586.82 290.616 587.131 289.191 587.259 288.607 587.375 288.033 587.479 287.47 587.713 286.2 587.888 284.99 588.017 283.854 588.178 284.132 588.343 284.409 588.496 284.692 590.035 287.531 591.156 290.578 591.824 293.737 591.826 293.749 591.829 293.761 591.832 293.773 592.201 295.524 592.431 297.302 592.518 299.089 592.545 299.639 592.56 300.193 592.56 300.75 592.56 301.307 592.545 301.86 592.518 302.41Z" fill="#0091DA" fill-rule="nonzero" fill-opacity="1"/><path d="M451.432 215.969 457.023 219.196C469.781 200.184 490.624 188.152 513.469 186.612L513.469 180.162C488.322 181.718 465.358 194.972 451.432 215.969ZM457.023 301.803 451.432 305.031C465.358 326.028 488.322 339.283 513.469 340.838L513.469 334.388C490.624 332.849 469.781 320.816 457.023 301.803ZM590.604 224.68 585.016 227.906C589.982 238.054 592.562 249.203 592.56 260.5 592.56 261.334 592.542 262.167 592.513 262.999L598.927 263.714C598.971 262.644 599 261.573 599 260.5 599.002 248.072 596.128 235.813 590.605 224.68Z" fill="#78BE20" fill-rule="nonzero" fill-opacity="1"/></g></g></g></g></g></svg>